<svg width="25" height="23" viewBox="0 0 25 23" fill="none" xmlns="http://www.w3.org/2000/svg">
<path d="M23.5352 9.05859H22.9897L22.2738 3.33273C22.1712 2.51067 21.8107 1.75402 21.2587 1.20222C20.6488 0.592064 19.873 0.269531 19.0157 0.269531H14.6971C14.4274 0.269531 14.2088 0.488113 14.2088 0.757812C14.2088 1.02751 14.4274 1.24609 14.6971 1.24609H14.9414V2.71094H10.0586V1.24609H14.9414C15.2111 1.24609 15.1786 1.02751 15.1786 0.757812C15.1786 0.488113 15.2111 0.269531 14.9414 0.269531H5.98431C5.12695 0.269531 4.35123 0.592064 3.74126 1.20222C3.18928 1.75402 2.82898 2.51067 2.72617 3.33273L2.01035 9.05859H1.46484C0.657082 9.05859 0 9.71568 0 10.5234V11.5C0 12.1546 0.431633 12.7102 1.02539 12.8973L1.95694 20.3495C2.13203 21.7514 3.13454 22.7305 4.39453 22.7305H20.6055C21.8655 22.7305 22.8678 21.7514 23.0431 20.3495L23.9746 12.8973C24.5684 12.7102 25 12.1546 25 11.5V10.5234C25 9.71568 24.3429 9.05859 23.5352 9.05859ZM15.918 1.24609H19.0157C19.6085 1.24609 20.1452 1.46963 20.5683 1.89268C20.9673 2.2917 21.2288 2.84617 21.3047 3.45366L22.0055 9.05859H20.5303L19.8515 3.62818C19.8164 3.34742 19.7031 3.0987 19.5328 2.92838C19.3926 2.78819 19.2089 2.71094 19.0157 2.71094H15.918V1.24609ZM6.07948 10.0352H8.78811L7.43389 11.3894L6.07948 10.0352ZM8.12435 12.08L9.96685 10.2375L11.8095 12.08L9.96685 13.9225L8.12435 12.08ZM11.1458 10.0352H13.8542L12.5 11.3894L11.1458 10.0352ZM12.5 12.7705L14.3425 14.6132L12.8452 16.1104C12.6549 16.3008 12.3451 16.3008 12.1548 16.1104L10.6573 14.6132L12.5 12.7705ZM15.0331 13.9225L13.1905 12.08L15.0331 10.2375L16.8756 12.08L15.0331 13.9225ZM17.5661 11.3894L16.2119 10.0352H18.9205L17.5661 11.3894ZM5.45387 9.05859L6.11744 3.74949C6.12049 3.72546 6.12469 3.70486 6.12946 3.6875H18.8705C18.8753 3.70486 18.8795 3.72546 18.8826 3.7493L19.5461 9.05859H5.45387ZM3.69511 3.45366C3.77121 2.84617 4.03271 2.2917 4.43172 1.89268C4.85477 1.46963 5.3915 1.24609 5.98431 1.24609H9.08203V2.71094H5.98431C5.79109 2.71094 5.6076 2.78799 5.46741 2.92838C5.2969 3.09889 5.1836 3.34742 5.14851 3.62818L4.46968 9.05859H2.99454L3.69511 3.45366ZM0.976562 10.5234C0.976562 10.2541 1.19553 10.0352 1.46484 10.0352H2.44122H2.44217H2.44312H4.69856L6.65169 11.9883H1.46484C1.19553 11.9883 0.976562 11.7691 0.976562 11.5V10.5234ZM22.0741 20.2284C21.9822 20.9631 21.4834 21.7539 20.6055 21.7539H4.39453C3.51658 21.7539 3.01781 20.9631 2.92587 20.2284L2.01797 12.9648H7.62806L11.4641 16.8009C11.7498 17.0864 12.1248 17.2293 12.5 17.2293C12.875 17.2293 13.2502 17.0864 13.5357 16.8009L15.3782 14.9586L17.3719 12.9648H22.982L22.0741 20.2284ZM24.0234 11.5C24.0234 11.7691 23.8045 11.9883 23.5352 11.9883H18.3485L20.3016 10.0352H22.5569H22.558H23.5352C23.8045 10.0352 24.0234 10.2541 24.0234 10.5234V11.5Z" fill="#251200"/>
</svg>
